# xmcd
#
# Track frame offsets: 
#        150
#        37725
#        72697
#        118920
#
# Disc length: 1993 seconds
#
# Revision: 1
# Processed by: cddbd v1.5.2PL0 Copyright (c) Steve Scherf et al.
# Submitted via: ExactAudioCopy v1.0b3
#
DISCID=3507c704
DTITLE=Albert Ayler - The First Recordings Vol.2
DYEAR=1990
DGENRE=Jazz
TTITLE0=Softly as in a morning sunrise
TTITLE1=I didn't know what time it was
TTITLE2=Moanin'
TTITLE3=Good Bait
EXTD=YEAR: 1990
EXTT0=
EXTT1=
EXTT2=
EXTT3=
PLAYORDER=
